<svg xmlns="http://www.w3.org/2000/svg" width="24" height="24" viewBox="0 0 41.193 39.142">
    <path id="Caminho_7" data-name="Caminho 7"
        d="M13.3,15.649A5.149,5.149,0,1,1,8.149,10.5,5.149,5.149,0,0,1,13.3,15.649Z" transform="translate(-3 -2.261)"
        fill="#13c2c2" />
    <path id="Caminho_8" data-name="Caminho 8"
        d="M20.048,9.649A5.149,5.149,0,1,1,14.9,4.5a5.149,5.149,0,0,1,5.149,5.149Z" transform="translate(-0.482 -4.5)"
        fill="#13c2c2" />
    <path id="Caminho_9" data-name="Caminho 9"
        d="M29.048,9.649A5.149,5.149,0,1,1,23.9,4.5a5.149,5.149,0,0,1,5.149,5.149Z" transform="translate(2.876 -4.5)"
        fill="#13c2c2" />
    <path id="Caminho_10" data-name="Caminho 10"
        d="M35.8,15.649A5.149,5.149,0,1,1,30.649,10.5,5.149,5.149,0,0,1,35.8,15.649Z"
        transform="translate(5.395 -2.261)" fill="#13c2c2" />
    <path id="Caminho_11" data-name="Caminho 11"
        d="M33.479,24.73c-1.792-2.1-3.3-3.893-5.108-5.994a8.738,8.738,0,0,0-3.6-2.719,4.17,4.17,0,0,0-.68-.185,10.366,10.366,0,0,0-1.607-.082,8.64,8.64,0,0,0-1.627.1,4.17,4.17,0,0,0-.68.185,8.873,8.873,0,0,0-3.6,2.719c-1.792,2.1-3.3,3.893-5.108,5.994-2.7,2.7-6.014,5.685-5.4,9.866a6.467,6.467,0,0,0,4.8,4.778c1.5.309,6.3-.906,11.41-.906h.371c5.108,0,9.907,1.195,11.41.906a6.5,6.5,0,0,0,4.8-4.778c.638-4.2-2.678-7.188-5.376-9.886Z"
        transform="translate(-1.884 -0.303)" fill="#13c2c2" />
</svg>