<svg xmlns="http://www.w3.org/2000/svg" width="24" height="24" viewBox="0 0 35.228 39.142">
    <path id="Icon_material-perm-contact-calendar" data-name="Icon material-perm-contact-calendar"
        d="M35.814,5.414H33.857V1.5H29.943V5.414H14.286V1.5H10.371V5.414H8.414A3.913,3.913,0,0,0,4.5,9.328v27.4a3.913,3.913,0,0,0,3.914,3.914h27.4a3.926,3.926,0,0,0,3.914-3.914V9.328A3.926,3.926,0,0,0,35.814,5.414Zm-13.7,5.871a5.871,5.871,0,1,1-5.871,5.871A5.863,5.863,0,0,1,22.114,11.286ZM33.857,34.771H10.371V32.814c0-3.914,7.828-6.067,11.743-6.067S33.857,28.9,33.857,32.814Z"
        transform="translate(-4.5 -1.5)" fill="#13c2c2" />
</svg>