<svg xmlns="http://www.w3.org/2000/svg" width="15.851" height="15.851" viewBox="0 0 15.851 15.851">
  <path id="Caminho_203" data-name="Caminho 203"
    d="M9.925,2A7.925,7.925,0,1,1,2,9.925,7.934,7.934,0,0,1,9.925,2Zm0,13.851A5.925,5.925,0,1,0,4,9.925,5.932,5.932,0,0,0,9.925,15.851Z"
    transform="translate(-2 -2)" fill="#fa972b" />
  <path id="Caminho_204" data-name="Caminho 204"
    d="M20.769,15.54a1,1,0,0,1-.446-.106l-2.77-1.385A1,1,0,0,1,17,13.155V9a1,1,0,1,1,2,0v3.537l2.217,1.109a1,1,0,0,1-.448,1.895Z"
    transform="translate(-10.075 -5.23)" fill="#fa972b" />
</svg>